# xmcd CD database file
#
# Track frame offsets:
#	150
#	23631
#	39252
#	57399
#	75539
#	91841
#	110227
#	130211
#	149077
#	171910
#	192619
#	213047
#	235211
#	258519
#	276087
#	302211
#	321328
#
# Disc length: 4562 seconds
#
# Revision: 1
# Processed by: cddbd v1.5.2PL0 Copyright (c) Steve Scherf et al.
# Submitted via: CDex 1.70beta2
#
DISCID=f911d011
DTITLE=Various Artist - Salsa WAO! 2009
DYEAR=2009
DGENRE=Salsa
TTITLE0=Yo No Me Doy Por Vencido - Michel
TTITLE1=Me Anamore - Klandestino
TTITLE2=Te Regalo Amores - Jose Alberto [El Canario]
TTITLE3=Yo No Te Alcanzo - Sexappeal
TTITLE4=Confianza - Adolecentes
TTITLE5=Me Emociona - Son De Cali
TTITLE6=Suelta Mis Manos Ya - Asdrubar
TTITLE7=Asi Es La Vida - El Lkan De Porfi
TTITLE8=Extranandote - Michel [Feat. Rubby Perez]
TTITLE9=Amor Amargo - Los Adolescentes
TTITLE10=No Le Pare - Ruina Nueva
TTITLE11=El Que Mas Te Ha Querido - Johnny Paa
TTITLE12=Dile - Michel
TTITLE13=Aquel Logar - Los Adolescentes
TTITLE14=Amor Y Control - Ruben Blades
TTITLE15=Vive Y Bacila - Ray Barreto
TTITLE16=Yo Soy Un Barco - Orlando Contreras
EXTD=YEAR: 2009
EXTT0=
EXTT1=
EXTT2=
EXTT3=
EXTT4=
EXTT5=
EXTT6=
EXTT7=
EXTT8=
EXTT9=
EXTT10=
EXTT11=
EXTT12=
EXTT13=
EXTT14=
EXTT15=
EXTT16=
PLAYORDER=
